<svg xmlns="http://www.w3.org/2000/svg" width="1010" height="660" viewBox="0 0 1010 660"><rect width="100%" height="100%" fill="#ffffff"/><rect x="40" y="290" width="940" height="350" fill="#ffffff" stroke="#6c8ebf"/><rect x="40" y="290" width="940" height="30" fill="#dae8fc" stroke="#6c8ebf" stroke-width="1"/><text x="510.0" y="309.2" font-family="Helvetica, Arial, sans-serif" font-size="12" fill="#000000" text-anchor="middle" font-weight="bold" xml:space="preserve">MemoryManager  (MMU + manejador de memoria del SO)</text><text x="26.0" y="36.3" font-family="Helvetica, Arial, sans-serif" font-size="18" fill="#000000" text-anchor="start" font-weight="bold" xml:space="preserve">Arquitectura del simulador</text><text x="26.0" y="58.2" font-family="Helvetica, Arial, sans-serif" font-size="12" fill="#555555" text-anchor="start" xml:space="preserve">Componentes, responsabilidades y flujo de datos entre módulos</text><rect x="30" y="90" width="180" height="56" rx="6" ry="6" fill="#f5f5f5" stroke="#666666" stroke-width="1"/><text x="120.0" y="116.0" font-family="Helvetica, Arial, sans-serif" font-size="12" fill="#000000" text-anchor="middle" font-weight="bold" xml:space="preserve">Archivo de trazas</text><text x="120.0" y="129.0" font-family="Courier New, monospace" font-size="10" fill="#000000" text-anchor="middle" xml:space="preserve">alloc | write | read | free</text><rect x="30" y="190" width="180" height="56" rx="6" ry="6" fill="#f5f5f5" stroke="#666666" stroke-width="1"/><text x="120.0" y="215.3" font-family="Helvetica, Arial, sans-serif" font-size="12" fill="#000000" text-anchor="middle" font-weight="bold" xml:space="preserve">Línea de comandos</text><text x="120.0" y="229.3" font-family="Courier New, monospace" font-size="11" fill="#000000" text-anchor="middle" xml:space="preserve">-p -s -m -v -c</text><rect x="260" y="90" width="200" height="56" rx="6" ry="6" fill="#fff2cc" stroke="#d6b656" stroke-width="1"/><text x="360.0" y="115.3" font-family="Helvetica, Arial, sans-serif" font-size="12" fill="#000000" text-anchor="middle" font-weight="bold" xml:space="preserve">trace.cpp</text><text x="360.0" y="129.3" font-family="Helvetica, Arial, sans-serif" font-size="11" fill="#000000" text-anchor="middle" xml:space="preserve">loadTrace() → Command[]</text><rect x="260" y="190" width="200" height="56" rx="6" ry="6" fill="#fff2cc" stroke="#d6b656" stroke-width="1"/><text x="360.0" y="215.9" font-family="Helvetica, Arial, sans-serif" font-size="12" fill="#000000" text-anchor="middle" font-weight="bold" xml:space="preserve">config.cpp</text><text x="360.0" y="229.0" font-family="Helvetica, Arial, sans-serif" font-size="10" fill="#000000" text-anchor="middle" xml:space="preserve">parseArguments() / validateConfig()</text><rect x="520" y="130" width="200" height="76" rx="6" ry="6" fill="#ffe6cc" stroke="#d79b00" stroke-width="1"/><text x="620.0" y="158.4" font-family="Helvetica, Arial, sans-serif" font-size="12" fill="#000000" text-anchor="middle" font-weight="bold" xml:space="preserve">Simulator</text><text x="620.0" y="172.5" font-family="Helvetica, Arial, sans-serif" font-size="11" fill="#000000" text-anchor="middle" xml:space="preserve">run() · execute()</text><text x="620.0" y="186.2" font-family="Helvetica, Arial, sans-serif" font-size="11" fill="#000000" text-anchor="middle" xml:space="preserve">mide tiempo total</text><rect x="780" y="130" width="200" height="76" rx="6" ry="6" fill="#f5f5f5" stroke="#666666" stroke-width="1"/><text x="880.0" y="159.1" font-family="Helvetica, Arial, sans-serif" font-size="12" fill="#000000" text-anchor="middle" font-weight="bold" xml:space="preserve">Salida</text><text x="880.0" y="173.1" font-family="Helvetica, Arial, sans-serif" font-size="11" fill="#000000" text-anchor="middle" xml:space="preserve">reporte · CSV · traza -v</text><text x="880.0" y="185.9" font-family="Helvetica, Arial, sans-serif" font-size="10" fill="#000000" text-anchor="middle" xml:space="preserve">printReport / printCsvRow</text><rect x="70" y="350" width="190" height="70" rx="6" ry="6" fill="#d5e8d4" stroke="#82b366" stroke-width="1"/><text x="165.0" y="375.4" font-family="Helvetica, Arial, sans-serif" font-size="12" fill="#000000" text-anchor="middle" font-weight="bold" xml:space="preserve">VirtualAllocator</text><text x="165.0" y="389.5" font-family="Helvetica, Arial, sans-serif" font-size="11" fill="#000000" text-anchor="middle" xml:space="preserve">regiones [inicio, tamaño)</text><text x="165.0" y="403.2" font-family="Helvetica, Arial, sans-serif" font-size="11" fill="#000000" text-anchor="middle" xml:space="preserve">first-fit alineado a página</text><rect x="70" y="470" width="190" height="70" rx="6" ry="6" fill="#d5e8d4" stroke="#82b366" stroke-width="1"/><text x="165.0" y="496.1" font-family="Helvetica, Arial, sans-serif" font-size="12" fill="#000000" text-anchor="middle" font-weight="bold" xml:space="preserve">AddressLayout</text><text x="165.0" y="510.1" font-family="Courier New, monospace" font-size="11" fill="#000000" text-anchor="middle" xml:space="preserve">PT1 | PT2 | Offset</text><text x="165.0" y="522.9" font-family="Helvetica, Arial, sans-serif" font-size="10" fill="#000000" text-anchor="middle" xml:space="preserve">bits según tamaño de página</text><rect x="340" y="350" width="200" height="70" rx="6" ry="6" fill="#dae8fc" stroke="#6c8ebf" stroke-width="1"/><text x="440.0" y="375.4" font-family="Helvetica, Arial, sans-serif" font-size="12" fill="#000000" text-anchor="middle" font-weight="bold" xml:space="preserve">PageTable</text><text x="440.0" y="389.5" font-family="Helvetica, Arial, sans-serif" font-size="11" fill="#000000" text-anchor="middle" xml:space="preserve">directorio 1024 → tablas nivel 2</text><text x="440.0" y="403.2" font-family="Helvetica, Arial, sans-serif" font-size="11" fill="#000000" text-anchor="middle" xml:space="preserve">creación bajo demanda</text><rect x="340" y="510" width="200" height="70" rx="6" ry="6" fill="#fff2cc" stroke="#d6b656" stroke-width="1"/><text x="440.0" y="542.3" font-family="Helvetica, Arial, sans-serif" font-size="12" fill="#000000" text-anchor="middle" font-weight="bold" xml:space="preserve">PhysicalMemory</text><text x="440.0" y="556.4" font-family="Helvetica, Arial, sans-serif" font-size="11" fill="#000000" text-anchor="middle" xml:space="preserve">bytes · FrameInfo · lista libre</text><rect x="620" y="350" width="210" height="70" rx="6" ry="6" fill="#e1d5e7" stroke="#9673a6" stroke-width="1"/><text x="725.0" y="375.4" font-family="Helvetica, Arial, sans-serif" font-size="12" fill="#000000" text-anchor="middle" font-weight="bold" xml:space="preserve">ReplacementPolicy</text><text x="725.0" y="389.5" font-family="Courier New, monospace" font-size="11" fill="#000000" text-anchor="middle" xml:space="preserve">FIFO | LRU | CLOCK</text><text x="725.0" y="403.2" font-family="Helvetica, Arial, sans-serif" font-size="11" fill="#000000" text-anchor="middle" xml:space="preserve">selectVictim()</text><path d="M640,492 C640,476.0 810,476.0 810,492 L810,578 C810,594.0 640,594.0 640,578 Z" fill="#f5f5f5" stroke="#666666" stroke-width="1"/><path d="M640,492 C640,508.0 810,508.0 810,492" fill="none" stroke="#666666"/><text x="725.0" y="544.3" font-family="Helvetica, Arial, sans-serif" font-size="12" fill="#000000" text-anchor="middle" font-weight="bold" xml:space="preserve">BackingStore</text><text x="725.0" y="558.4" font-family="Helvetica, Arial, sans-serif" font-size="11" fill="#000000" text-anchor="middle" xml:space="preserve">swap: vpn → página</text><rect x="860" y="350" width="100" height="70" rx="6" ry="6" fill="#f8cecc" stroke="#b85450" stroke-width="1"/><text x="910.0" y="376.7" font-family="Helvetica, Arial, sans-serif" font-size="12" fill="#000000" text-anchor="middle" font-weight="bold" xml:space="preserve">Statistics</text><text x="910.0" y="389.8" font-family="Helvetica, Arial, sans-serif" font-size="10" fill="#000000" text-anchor="middle" xml:space="preserve">fallos, hits,</text><text x="910.0" y="402.2" font-family="Helvetica, Arial, sans-serif" font-size="10" fill="#000000" text-anchor="middle" xml:space="preserve">reemplazos</text><text x="954.0" y="618.9" font-family="Helvetica, Arial, sans-serif" font-size="11" fill="#555555" text-anchor="end" font-style="italic" xml:space="preserve">translate() · handlePageFault() · obtainFrame() · evict()</text><polyline points="210.0,118.0 253.0,118.0" fill="none" stroke="#333333" stroke-width="1"/><path d="M260.0,118.0 L250.0,123.0 L253.0,118.0 L250.0,113.0 Z" fill="#333333" stroke="#333333"/><polyline points="210.0,218.0 253.0,218.0" fill="none" stroke="#333333" stroke-width="1"/><path d="M260.0,218.0 L250.0,223.0 L253.0,218.0 L250.0,213.0 Z" fill="#333333" stroke="#333333"/><polyline points="460.0,118.0 490.0,118.0 490.0,152.8 513.0,152.8" fill="none" stroke="#333333" stroke-width="1"/><path d="M520.0,152.8 L510.0,157.8 L513.0,152.8 L510.0,147.8 Z" fill="#333333" stroke="#333333"/><polyline points="460.0,218.0 490.0,218.0 490.0,183.2 513.0,183.2" fill="none" stroke="#333333" stroke-width="1"/><path d="M520.0,183.2 L510.0,188.2 L513.0,183.2 L510.0,178.2 Z" fill="#333333" stroke="#333333"/><polyline points="720.0,168.0 773.0,168.0" fill="none" stroke="#333333" stroke-width="1"/><path d="M780.0,168.0 L770.0,173.0 L773.0,168.0 L770.0,163.0 Z" fill="#333333" stroke="#333333"/><polyline points="620.0,206.0 620.0,248.0 604.0,248.0 604.0,283.0" fill="none" stroke="#333333" stroke-width="1"/><path d="M604.0,290.0 L599.0,280.0 L604.0,283.0 L609.0,280.0 Z" fill="#333333" stroke="#333333"/><rect x="519.9" y="241.1" width="184.2" height="13.8" fill="#ffffff"/><text x="612.0" y="251.8" font-family="Courier New, monospace" font-size="11" fill="#000000" text-anchor="middle" xml:space="preserve">read / write / alloc / free</text><polyline points="260.0,385.0 333.0,385.0" fill="none" stroke="#333333" stroke-width="1"/><path d="M340.0,385.0 L330.0,390.0 L333.0,385.0 L330.0,380.0 Z" fill="#333333" stroke="#333333"/><rect x="265.2" y="378.8" width="69.6" height="12.5" fill="#ffffff"/><text x="300.0" y="388.5" font-family="Helvetica, Arial, sans-serif" font-size="10" fill="#000000" text-anchor="middle" xml:space="preserve">contains(va)</text><polyline points="260.0,505.0 300.0,505.0 300.0,406.0 333.0,406.0" fill="none" stroke="#333333" stroke-width="1"/><path d="M340.0,406.0 L330.0,411.0 L333.0,406.0 L330.0,401.0 Z" fill="#333333" stroke="#333333"/><rect x="273.1" y="463.8" width="53.7" height="12.5" fill="#ffffff"/><text x="300.0" y="473.5" font-family="Helvetica, Arial, sans-serif" font-size="10" fill="#000000" text-anchor="middle" xml:space="preserve">split(va)</text><polyline points="440.0,420.0 440.0,503.0" fill="none" stroke="#333333" stroke-width="1"/><path d="M440.0,510.0 L435.0,500.0 L440.0,503.0 L445.0,500.0 Z" fill="#333333" stroke="#333333"/><rect x="413.1" y="458.8" width="53.7" height="12.5" fill="#ffffff"/><text x="440.0" y="468.5" font-family="Helvetica, Arial, sans-serif" font-size="10" fill="#000000" text-anchor="middle" xml:space="preserve">PTE.frame</text><polyline points="620.0,385.0 547.0,385.0" fill="none" stroke="#333333" stroke-width="1"/><path d="M540.0,385.0 L550.0,380.0 L547.0,385.0 L550.0,390.0 Z" fill="#333333" stroke="#333333"/><rect x="558.5" y="378.8" width="43.1" height="12.5" fill="#ffffff"/><text x="580.0" y="388.5" font-family="Helvetica, Arial, sans-serif" font-size="10" fill="#000000" text-anchor="middle" xml:space="preserve">víctima</text><polyline points="540.0,545.0 590.0,545.0 590.0,535.0 633.0,535.0" fill="none" stroke="#333333" stroke-width="1"/><path d="M640.0,535.0 L630.0,540.0 L633.0,535.0 L630.0,530.0 Z" fill="#333333" stroke="#333333"/><rect x="565.8" y="513.8" width="48.4" height="12.5" fill="#ffffff"/><text x="590.0" y="523.5" font-family="Helvetica, Arial, sans-serif" font-size="10" fill="#000000" text-anchor="middle" xml:space="preserve">swap-out</text><polyline points="640.0,559.2 590.0,559.2 590.0,566.0 547.0,566.0" fill="none" stroke="#333333" stroke-width="1"/><path d="M540.0,566.0 L550.0,561.0 L547.0,566.0 L550.0,571.0 Z" fill="#333333" stroke="#333333"/><rect x="568.5" y="559.8" width="43.1" height="12.5" fill="#ffffff"/><text x="590.0" y="569.5" font-family="Helvetica, Arial, sans-serif" font-size="10" fill="#000000" text-anchor="middle" xml:space="preserve">swap-in</text><polyline points="830.0,385.0 860.0,385.0" fill="none" stroke="#333333" stroke-width="1" stroke-dasharray="6 4"/><path d="M850.0,390.0 L860.0,385.0 L850.0,380.0" fill="none" stroke="#333333"/></svg>
